<svg xmlns="http://www.w3.org/2000/svg" version="1.1" viewBox="-5.0 -10.0 110.0 135.0">
 <path d="m40.793 96.5v-70.398c0-1.7148 0.69922-3.2734 1.8281-4.4023 1.1289-1.1289 2.6875-1.8281 4.4023-1.8281h10.18v-12.078c0-0.28125-0.023437-0.54688-0.070313-0.80078-0.17187-0.94141-0.64062-1.8359-1.2891-2.4883-0.60547-0.60938-1.375-1.0039-2.2031-1.0039-0.16406 0-0.32031 0.011719-0.46484 0.035156l-42.594 7.8516c-1.2969 0.23828-2.4844 0.78516-3.3008 1.6055-0.68359 0.67969-1.1094 1.5703-1.1094 2.6445v76.629c0 1.1602 0.47656 2.2188 1.2422 2.9844 0.76953 0.76953 1.8281 1.2461 2.9883 1.2461h30.387zm-20.691-82.387h11.59c0.55078 0 1 0.44922 1 1v7.5c0 0.55078-0.44922 1-1 1h-11.59c-0.55078 0-1-0.44922-1-1v-7.5c0-0.55078 0.44922-1 1-1zm10.59 2h-9.5898v5.5h9.5898zm-10.59 62.52h11.59c0.55078 0 1 0.44922 1 1v7.5c0 0.55078-0.44922 1-1 1h-11.59c-0.55078 0-1-0.44922-1-1v-7.5c0-0.55078 0.44922-1 1-1zm10.59 2h-9.5898v5.5h9.5898zm-10.59-18.129h11.59c0.55078 0 1 0.44922 1 1v7.5c0 0.55078-0.44922 1-1 1h-11.59c-0.55078 0-1-0.44922-1-1v-7.5c0-0.55078 0.44922-1 1-1zm10.59 2h-9.5898v5.5h9.5898zm-10.59-34.262h11.59c0.55078 0 1 0.44922 1 1v7.5c0 0.55078-0.44922 1-1 1h-11.59c-0.55078 0-1-0.44922-1-1v-7.5c0-0.55078 0.44922-1 1-1zm10.59 2h-9.5898v5.5h9.5898zm-10.59 14.129h11.59c0.55078 0 1 0.44922 1 1v7.5c0 0.55078-0.44922 1-1 1h-11.59c-0.55078 0-1-0.44922-1-1v-7.5c0-0.55078 0.44922-1 1-1zm10.59 2h-9.5898v5.5h9.5898zm26.027 30.258h23.18c0.55078 0 1 0.44922 1 1v7.5c0 0.55078-0.44922 1-1 1h-23.18c-0.55078 0-1-0.44922-1-1v-7.5c0-0.55078 0.44922-1 1-1zm22.18 2h-21.18v5.5h21.18zm-22.18-18.129h23.18c0.55078 0 1 0.44922 1 1v7.5c0 0.55078-0.44922 1-1 1h-23.18c-0.55078 0-1-0.44922-1-1v-7.5c0-0.55078 0.44922-1 1-1zm22.18 2h-21.18v5.5h21.18zm-22.18-34.262h23.18c0.55078 0 1 0.44922 1 1v7.5c0 0.55078-0.44922 1-1 1h-23.18c-0.55078 0-1-0.44922-1-1v-7.5c0-0.55078 0.44922-1 1-1zm22.18 2h-21.18v5.5h21.18zm-22.18 14.129h23.18c0.55078 0 1 0.44922 1 1v7.5c0 0.55078-0.44922 1-1 1h-23.18c-0.55078 0-1-0.44922-1-1v-7.5c0-0.55078 0.44922-1 1-1zm22.18 2h-21.18v5.5h21.18zm-36.102-22.27v70.398h46.797c1.1641 0 2.2188-0.47656 2.9883-1.2422 0.76953-0.76172 1.2422-1.8242 1.2422-2.9883v-66.164c0-1.1641-0.47656-2.2266-1.2383-2.9883-0.76563-0.76953-1.8242-1.2422-2.9922-1.2422h-42.57c-1.1641 0-2.2188 0.47656-2.9883 1.2422-0.76562 0.76562-1.2422 1.8242-1.2422 2.9883z"/>
<text x="0.0" y="117.5" font-size="5.0" font-weight="bold" font-family="Arbeit Regular, Helvetica, Arial-Unicode, Arial, Sans-serif" fill="#000000">Created by Danang Marhendra</text><text x="0.0" y="122.5" font-size="5.0" font-weight="bold" font-family="Arbeit Regular, Helvetica, Arial-Unicode, Arial, Sans-serif" fill="#000000">from Noun Project</text></svg>