<svg xmlns="http://www.w3.org/2000/svg" version="1.1" viewBox="-5.0 -10.0 110.0 135.0">
 <path d="m15.934 52.168h68.133c3.3867 0 6.1289-2.7422 6.1289-6.1289 0-3.3828-2.7422-6.125-6.1289-6.125h-2.2148c-0.78906-5.7383-3.1133-11.156-6.7266-15.684-3.6133-4.5273-8.3828-7.9961-13.801-10.039v0.4375c-0.007813 5.7891-4.6992 10.48-10.492 10.488h-1.6641c-5.7891-0.007813-10.48-4.6992-10.492-10.488v-0.44531c-5.418 2.0469-10.188 5.5156-13.801 10.043-3.6133 4.5273-5.9375 9.9492-6.7266 15.688h-2.2148c-3.3867 0-6.1289 2.7422-6.1289 6.125 0 3.3867 2.7422 6.1289 6.1289 6.1289z"/>
 <path d="m49.168 1.5625h1.6641c3.918 0 7.0977 3.1797 7.0977 7.0977v5.9648c0 3.9219-3.1797 7.0977-7.0977 7.0977h-1.6641c-3.918 0-7.0977-3.1758-7.0977-7.0977v-5.9648c0-1.8828 0.75-3.6875 2.0781-5.0195 1.332-1.332 3.1367-2.0781 5.0195-2.0781z"/>
 <path d="m68.348 57.305c0.003906 2.1172-0.35938 4.2148-1.0781 6.207-0.19531 0.55078-0.42188 1.0859-0.67188 1.6133-1.8203 3.8555-4.918 6.957-8.7695 8.7812-0.52734 0.25-1.0703 0.47656-1.6211 0.67188-4.0117 1.4375-8.4023 1.4375-12.414 0-0.55078-0.19531-1.0938-0.42188-1.6211-0.67188-3.8516-1.8242-6.9492-4.9258-8.7695-8.7812-0.25-0.52734-0.47656-1.0625-0.67188-1.6133-0.71875-1.9922-1.082-4.0898-1.0781-6.207h-22.781v4.3242c0 1.9336 1.5703 3.5 3.5039 3.4961h4.2812c2.3828 0.011719 4.5273 1.4609 5.4258 3.6719l0.046875 0.11328h-0.003906c0.93359 2.1992 0.44531 4.7422-1.2344 6.4414l-3.0312 3.0312c-0.65625 0.65625-1.0273 1.5469-1.0273 2.4766s0.37109 1.8203 1.0273 2.4766l6.1133 6.1133v-0.003907c1.3672 1.3672 3.582 1.3672 4.9531 0l3.0312-3.0312-0.003906 0.003907c1.6953-1.6836 4.2383-2.1758 6.4375-1.2461 0.046875 0.023437 0.082031 0.039063 0.12109 0.054687 2.2109 0.89453 3.6562 3.0391 3.6602 5.4258v4.2812c0 0.92969 0.37109 1.8203 1.0273 2.4766 0.65625 0.66016 1.5508 1.0273 2.4805 1.0273h8.6445-0.003907c0.92969 0 1.8242-0.36719 2.4805-1.0273 0.65625-0.65625 1.0273-1.5469 1.0273-2.4766v-4.2812c0.003906-2.3867 1.4492-4.5312 3.6602-5.4258 0.039063-0.015624 0.074219-0.03125 0.12109-0.054687 2.1992-0.92969 4.7422-0.4375 6.4375 1.2461l3.0312 3.0312-0.003906-0.003907c1.3711 1.3633 3.5859 1.3633 4.9531 0l6.1133-6.1094c0.65625-0.65625 1.0273-1.5469 1.0273-2.4766s-0.37109-1.8203-1.0273-2.4766l-3.0312-3.0312c-1.6797-1.6992-2.168-4.2422-1.2344-6.4414l0.046875-0.11328h-0.003906c0.89844-2.2109 3.043-3.6602 5.4258-3.6719h4.2812c1.9336 0.003906 3.5039-1.5625 3.5039-3.4961v-4.3242z"/>
<text x="0.0" y="117.5" font-size="5.0" font-weight="bold" font-family="Arbeit Regular, Helvetica, Arial-Unicode, Arial, Sans-serif" fill="#000000">Created by Injamamul hoq miraz</text><text x="0.0" y="122.5" font-size="5.0" font-weight="bold" font-family="Arbeit Regular, Helvetica, Arial-Unicode, Arial, Sans-serif" fill="#000000">from Noun Project</text></svg>