<svg xmlns="http://www.w3.org/2000/svg" version="1.1" viewBox="-5.0 -10.0 110.0 135.0">
 <g>
  <path d="m3.125 93.75c-0.86328 0-1.5625 0.69922-1.5625 1.5625v3.125c0 0.86328 0.69922 1.5625 1.5625 1.5625s1.5625-0.69922 1.5625-1.5625v-3.125c0-0.41406-0.16406-0.8125-0.45703-1.1055s-0.69141-0.45703-1.1055-0.45703z"/>
  <path d="m9.375 93.75c-0.86328 0-1.5625 0.69922-1.5625 1.5625v3.125c0 0.86328 0.69922 1.5625 1.5625 1.5625s1.5625-0.69922 1.5625-1.5625v-3.125c0-0.41406-0.16406-0.8125-0.45703-1.1055s-0.69141-0.45703-1.1055-0.45703z"/>
  <path d="m15.625 93.75c-0.86328 0-1.5625 0.69922-1.5625 1.5625v3.125c0 0.86328 0.69922 1.5625 1.5625 1.5625s1.5625-0.69922 1.5625-1.5625v-3.125c0-0.41406-0.16406-0.8125-0.45703-1.1055s-0.69141-0.45703-1.1055-0.45703z"/>
  <path d="m98.438 81.016-14.062-8.0469v-21.562c1.3867-0.35938 2.3516-1.6133 2.3438-3.0469v-3.0469c0-0.82812-0.32812-1.625-0.91406-2.2109-0.58594-0.58594-1.3828-0.91406-2.2109-0.91406h-10.938c-1.7266 0-3.125 1.3984-3.125 3.125v3.125c-0.007812 1.4336 0.95703 2.6875 2.3438 3.0469v14.375l-18.75-10.781c-2.4297-1.3711-5.4102-1.3398-7.8125 0.078125l-43.75 25.859c-0.95312 0.55078-1.543 1.5586-1.5625 2.6562v5.7812c-0.011719 1.125 0.58594 2.1719 1.5625 2.7344 0.96875 0.55859 2.1562 0.55859 3.125 0l42.188-24.922c1.4492-0.83594 3.2383-0.83594 4.6875 0l43.75 25c0.97266 0.5625 2.168 0.55859 3.1367-0.007813 0.96875-0.5625 1.5625-1.6055 1.5508-2.7266v-5.7812c0.011719-1.125-0.58594-2.1719-1.5625-2.7344zm-25.781-35.703h10.938v3.125h-10.938zm2.3438 6.25h6.25v19.609l-6.25-3.5938zm21.875 37.969-43.75-25c-2.4297-1.3711-5.4102-1.3398-7.8125 0.078125l-42.188 24.844v-5.7812l43.75-25.781c1.4492-0.83594 3.2383-0.83594 4.6875 0l45.312 25.859z"/>
  <path d="m21.875 93.75c-0.86328 0-1.5625 0.69922-1.5625 1.5625v3.125c0 0.86328 0.69922 1.5625 1.5625 1.5625s1.5625-0.69922 1.5625-1.5625v-3.125c0-0.41406-0.16406-0.8125-0.45703-1.1055s-0.69141-0.45703-1.1055-0.45703z"/>
  <path d="m28.125 93.75c-0.86328 0-1.5625 0.69922-1.5625 1.5625v3.125c0 0.86328 0.69922 1.5625 1.5625 1.5625s1.5625-0.69922 1.5625-1.5625v-3.125c0-0.41406-0.16406-0.8125-0.45703-1.1055s-0.69141-0.45703-1.1055-0.45703z"/>
  <path d="m34.375 93.75c-0.86328 0-1.5625 0.69922-1.5625 1.5625v3.125c0 0.86328 0.69922 1.5625 1.5625 1.5625s1.5625-0.69922 1.5625-1.5625v-3.125c0-0.41406-0.16406-0.8125-0.45703-1.1055s-0.69141-0.45703-1.1055-0.45703z"/>
  <path d="m40.625 93.75c-0.86328 0-1.5625 0.69922-1.5625 1.5625v3.125c0 0.86328 0.69922 1.5625 1.5625 1.5625s1.5625-0.69922 1.5625-1.5625v-3.125c0-0.41406-0.16406-0.8125-0.45703-1.1055s-0.69141-0.45703-1.1055-0.45703z"/>
  <path d="m46.875 93.75c-0.86328 0-1.5625 0.69922-1.5625 1.5625v3.125c0 0.86328 0.69922 1.5625 1.5625 1.5625s1.5625-0.69922 1.5625-1.5625v-3.125c0-0.41406-0.16406-0.8125-0.45703-1.1055s-0.69141-0.45703-1.1055-0.45703z"/>
  <path d="m53.125 93.75c-0.86328 0-1.5625 0.69922-1.5625 1.5625v3.125c0 0.86328 0.69922 1.5625 1.5625 1.5625s1.5625-0.69922 1.5625-1.5625v-3.125c0-0.41406-0.16406-0.8125-0.45703-1.1055s-0.69141-0.45703-1.1055-0.45703z"/>
  <path d="m59.375 93.75c-0.86328 0-1.5625 0.69922-1.5625 1.5625v3.125c0 0.86328 0.69922 1.5625 1.5625 1.5625s1.5625-0.69922 1.5625-1.5625v-3.125c0-0.41406-0.16406-0.8125-0.45703-1.1055s-0.69141-0.45703-1.1055-0.45703z"/>
  <path d="m65.625 93.75c-0.86328 0-1.5625 0.69922-1.5625 1.5625v3.125c0 0.86328 0.69922 1.5625 1.5625 1.5625s1.5625-0.69922 1.5625-1.5625v-3.125c0-0.41406-0.16406-0.8125-0.45703-1.1055s-0.69141-0.45703-1.1055-0.45703z"/>
  <path d="m71.875 93.75c-0.86328 0-1.5625 0.69922-1.5625 1.5625v3.125c0 0.86328 0.69922 1.5625 1.5625 1.5625s1.5625-0.69922 1.5625-1.5625v-3.125c0-0.41406-0.16406-0.8125-0.45703-1.1055s-0.69141-0.45703-1.1055-0.45703z"/>
  <path d="m78.125 93.75c-0.86328 0-1.5625 0.69922-1.5625 1.5625v3.125c0 0.86328 0.69922 1.5625 1.5625 1.5625s1.5625-0.69922 1.5625-1.5625v-3.125c0-0.41406-0.16406-0.8125-0.45703-1.1055s-0.69141-0.45703-1.1055-0.45703z"/>
  <path d="m84.375 93.75c-0.86328 0-1.5625 0.69922-1.5625 1.5625v3.125c0 0.86328 0.69922 1.5625 1.5625 1.5625s1.5625-0.69922 1.5625-1.5625v-3.125c0-0.41406-0.16406-0.8125-0.45703-1.1055s-0.69141-0.45703-1.1055-0.45703z"/>
  <path d="m90.625 93.75c-0.86328 0-1.5625 0.69922-1.5625 1.5625v3.125c0 0.86328 0.69922 1.5625 1.5625 1.5625s1.5625-0.69922 1.5625-1.5625v-3.125c0-0.41406-0.16406-0.8125-0.45703-1.1055s-0.69141-0.45703-1.1055-0.45703z"/>
  <path d="m96.875 93.75c-0.86328 0-1.5625 0.69922-1.5625 1.5625v3.125c0 0.86328 0.69922 1.5625 1.5625 1.5625s1.5625-0.69922 1.5625-1.5625v-3.125c0-0.41406-0.16406-0.8125-0.45703-1.1055s-0.69141-0.45703-1.1055-0.45703z"/>
  <path d="m60.156 91.406v-12.5c0-0.41406-0.16406-0.8125-0.45703-1.1055s-0.69141-0.45703-1.1055-0.45703h-17.188c-0.86328 0-1.5625 0.69922-1.5625 1.5625v12.5c0 0.41406 0.16406 0.8125 0.45703 1.1055s0.69141 0.45703 1.1055 0.45703h17.188c0.41406 0 0.8125-0.16406 1.1055-0.45703s0.45703-0.69141 0.45703-1.1055zm-3.125-7.7344h-5.4688v-3.2031h5.4688zm-8.5938-3.2031v3.2031h-5.4688v-3.2031zm-5.4688 6.3281h5.4688v3.0469h-5.4688zm8.5938 3.0469v-3.0469h5.4688v3.0469z"/>
  <path d="m65.703 17.812-9.2188-10.156c-0.5625-0.64062-1.5391-0.71094-2.1875-0.15625l-0.78125 0.625c-1.5625-2.5-5.2344-6.9531-10.781-7.8906s-10.625 1.3281-16.25 6.6406c-0.48438 0.51172-0.56641 1.2812-0.20312 1.8867 0.36328 0.60156 1.0898 0.88672 1.7656 0.69141 0.078125 0 8.5938-2.8906 12.5 2.4219l2.8125 3.9062-1.875 2.0312c-0.54688 0.59766-0.54688 1.5117 0 2.1094l1.0938 1.1719-7.4219 7.5781-1.4844-1.4844c-0.58594-0.61719-1.5586-0.65234-2.1875-0.078125l-30.391 27.344c-0.64062 0.56641-1.0234 1.375-1.0508 2.2305-0.03125 0.85938 0.29297 1.6914 0.89453 2.3008l8.9062 8.9062c1.1836 1.1641 3.0703 1.1992 4.2969 0.078125l30.469-27.5c0.32031-0.28516 0.51172-0.6875 0.52734-1.1172 0.011719-0.42578-0.14844-0.84375-0.44922-1.1484l-2.1875-2.1875 7.2656-7.2656 1.4062 1.4844c0.48438 0.51562 1.25 0.64453 1.875 0.3125 0 0 3.4375-1.7188 5-0.078125s-0.23438 4.1406-0.23438 4.2969c-0.43359 0.58984-0.40234 1.4023 0.078125 1.9531l4.4531 5.0781c0.55078 0.64844 1.3398 1.043 2.1875 1.0938h0.15625c0.77734 0.011719 1.5273-0.26953 2.1094-0.78125l10.156-9.0625c0.61719-0.56641 0.98047-1.3555 1.0117-2.1953 0.027344-0.83594-0.27734-1.6484-0.85547-2.2578l-5.1562-5.3125c-0.55469-0.59375-1.4727-0.66016-2.1094-0.15625-0.23438 0.23438-2.5781 1.875-4.1406 0.15625h-0.078125s-0.85938-1.0156 0.3125-3.5156c0.39453-0.625 0.29688-1.4375-0.23438-1.9531zm-53.672 47.812-8.8281-8.8281 29.297-26.406 8.8281 8.8281zm28.438-32.031-2.8906-2.8906 6.9531-6.9531 2.8906 2.8906zm30.156-7.4219 4.2188 4.4531-10.156 9.0625-3.6719-4.2188c0.9375-1.875 1.4844-4.8438-0.625-7.1094s-5.8594-1.7188-7.6562-1.0156l-7.8906-8.3594 1.7188-1.9531c0.50391-0.53516 0.57031-1.3477 0.15625-1.9531l-3.5156-5c-2.7344-3.6719-6.6406-4.6094-10-4.5312 3.125-2.0312 6.1719-2.8125 8.9844-2.2656 6.0938 1.0938 9.5312 7.8906 9.6094 7.8906 0.20312 0.44141 0.60156 0.76562 1.0742 0.87109 0.47656 0.10938 0.97266-0.011719 1.3477-0.32422l1.0938-0.85938 7.5781 8.2812c-1.3281 3.5938 0.23438 5.625 0.70312 6.0938 2.1094 2.5 5.0781 1.9531 6.9531 0.9375z"/>
 </g>
<text x="0.0" y="117.5" font-size="5.0" font-weight="bold" font-family="Arbeit Regular, Helvetica, Arial-Unicode, Arial, Sans-serif" fill="#000000">Created by Creative Mahira</text><text x="0.0" y="122.5" font-size="5.0" font-weight="bold" font-family="Arbeit Regular, Helvetica, Arial-Unicode, Arial, Sans-serif" fill="#000000">from Noun Project</text></svg>